<mxfile host="app.diagrams.net" modified="2024-01-16T16:35:39.303Z" agent="Mozilla/5.0 (Windows NT 10.0; Win64; x64) AppleWebKit/537.36 (KHTML, like Gecko) Chrome/120.0.0.0 Safari/537.36" etag="sOOEU2dnXfDCNhqwUs98" version="22.1.18" type="device">
  <diagram name="Page-1" id="68cbeDvSWBJkT-_ImNcx">
    <mxGraphModel dx="1185" dy="632" grid="1" gridSize="10" guides="1" tooltips="1" connect="1" arrows="1" fold="1" page="1" pageScale="1" pageWidth="827" pageHeight="1169" math="0" shadow="0">
      <root>
        <mxCell id="0" />
        <mxCell id="1" parent="0" />
        <mxCell id="Bm57KJPm13JoBIqNMTeG-70" value="" style="rounded=0;whiteSpace=wrap;html=1;dashed=1;" vertex="1" parent="1">
          <mxGeometry x="460.33" y="240" width="350" height="50" as="geometry" />
        </mxCell>
        <mxCell id="Bm57KJPm13JoBIqNMTeG-55" value="" style="rounded=0;whiteSpace=wrap;html=1;dashed=1;" vertex="1" parent="1">
          <mxGeometry x="466" y="85" width="350" height="50" as="geometry" />
        </mxCell>
        <mxCell id="Bm57KJPm13JoBIqNMTeG-2" value="1" style="text;html=1;strokeColor=#d6b656;fillColor=#fff2cc;align=center;verticalAlign=middle;whiteSpace=wrap;rounded=1;glass=0;shadow=1;arcSize=19;" vertex="1" parent="1">
          <mxGeometry y="30" width="20" height="20" as="geometry" />
        </mxCell>
        <mxCell id="Bm57KJPm13JoBIqNMTeG-3" value="websocket" style="edgeStyle=orthogonalEdgeStyle;rounded=0;orthogonalLoop=1;jettySize=auto;html=1;curved=1;" edge="1" parent="1" source="Bm57KJPm13JoBIqNMTeG-4" target="Bm57KJPm13JoBIqNMTeG-7">
          <mxGeometry relative="1" as="geometry">
            <Array as="points">
              <mxPoint x="163.32999999999998" y="154" />
            </Array>
          </mxGeometry>
        </mxCell>
        <mxCell id="Bm57KJPm13JoBIqNMTeG-37" value="http" style="edgeStyle=orthogonalEdgeStyle;rounded=0;orthogonalLoop=1;jettySize=auto;html=1;curved=1;" edge="1" parent="1" source="Bm57KJPm13JoBIqNMTeG-4" target="Bm57KJPm13JoBIqNMTeG-7">
          <mxGeometry relative="1" as="geometry">
            <Array as="points">
              <mxPoint x="253.32999999999998" y="154" />
            </Array>
          </mxGeometry>
        </mxCell>
        <mxCell id="Bm57KJPm13JoBIqNMTeG-4" value="Mobile users" style="rounded=1;whiteSpace=wrap;html=1;" vertex="1" parent="1">
          <mxGeometry x="148.32999999999998" y="30" width="120" height="30" as="geometry" />
        </mxCell>
        <mxCell id="Bm57KJPm13JoBIqNMTeG-38" style="rounded=0;orthogonalLoop=1;jettySize=auto;html=1;" edge="1" parent="1" target="Bm57KJPm13JoBIqNMTeG-11">
          <mxGeometry relative="1" as="geometry">
            <mxPoint x="223.32999999999998" y="200" as="sourcePoint" />
          </mxGeometry>
        </mxCell>
        <mxCell id="Bm57KJPm13JoBIqNMTeG-7" value="Load Balancer" style="sketch=0;outlineConnect=0;fontColor=#232F3E;gradientColor=none;fillColor=#231440;strokeColor=none;dashed=0;verticalLabelPosition=bottom;verticalAlign=top;align=center;html=1;fontSize=12;fontStyle=0;aspect=fixed;pointerEvents=1;shape=mxgraph.aws4.application_load_balancer;" vertex="1" parent="1">
          <mxGeometry x="189.32999999999998" y="135" width="38" height="38" as="geometry" />
        </mxCell>
        <mxCell id="Bm57KJPm13JoBIqNMTeG-8" value="Location&lt;br&gt;History" style="shape=cylinder3;whiteSpace=wrap;html=1;boundedLbl=1;backgroundOutline=1;size=3.2222222222219443;" vertex="1" parent="1">
          <mxGeometry x="203.32999999999998" y="282" width="50" height="40" as="geometry" />
        </mxCell>
        <mxCell id="Bm57KJPm13JoBIqNMTeG-9" value="User DB" style="shape=cylinder3;whiteSpace=wrap;html=1;boundedLbl=1;backgroundOutline=1;size=3.2222222222219443;" vertex="1" parent="1">
          <mxGeometry x="333.33" y="290" width="51" height="40" as="geometry" />
        </mxCell>
        <mxCell id="Bm57KJPm13JoBIqNMTeG-40" style="rounded=0;orthogonalLoop=1;jettySize=auto;html=1;startArrow=classic;startFill=1;" edge="1" parent="1" source="Bm57KJPm13JoBIqNMTeG-10">
          <mxGeometry relative="1" as="geometry">
            <mxPoint x="203.32999999999998" y="200" as="targetPoint" />
          </mxGeometry>
        </mxCell>
        <mxCell id="Bm57KJPm13JoBIqNMTeG-41" style="rounded=0;orthogonalLoop=1;jettySize=auto;html=1;" edge="1" parent="1" source="Bm57KJPm13JoBIqNMTeG-10" target="Bm57KJPm13JoBIqNMTeG-8">
          <mxGeometry relative="1" as="geometry" />
        </mxCell>
        <mxCell id="Bm57KJPm13JoBIqNMTeG-43" style="rounded=0;orthogonalLoop=1;jettySize=auto;html=1;" edge="1" parent="1" source="Bm57KJPm13JoBIqNMTeG-10" target="Bm57KJPm13JoBIqNMTeG-42">
          <mxGeometry relative="1" as="geometry" />
        </mxCell>
        <mxCell id="Bm57KJPm13JoBIqNMTeG-10" value="WebSocket&lt;br&gt;Servers" style="rounded=0;whiteSpace=wrap;html=1;" vertex="1" parent="1">
          <mxGeometry x="83.33" y="217" width="90" height="40" as="geometry" />
        </mxCell>
        <mxCell id="Bm57KJPm13JoBIqNMTeG-39" style="rounded=0;orthogonalLoop=1;jettySize=auto;html=1;" edge="1" parent="1" source="Bm57KJPm13JoBIqNMTeG-11" target="Bm57KJPm13JoBIqNMTeG-9">
          <mxGeometry relative="1" as="geometry" />
        </mxCell>
        <mxCell id="Bm57KJPm13JoBIqNMTeG-11" value="API&lt;br&gt;Servers" style="rounded=0;whiteSpace=wrap;html=1;" vertex="1" parent="1">
          <mxGeometry x="243.32999999999998" y="220" width="90" height="40" as="geometry" />
        </mxCell>
        <mxCell id="Bm57KJPm13JoBIqNMTeG-36" value="Bi-directional&lt;br&gt;location info" style="rounded=0;whiteSpace=wrap;html=1;dashed=1;fillColor=#fff2cc;strokeColor=#d6b656;" vertex="1" parent="1">
          <mxGeometry y="217" width="80" height="30" as="geometry" />
        </mxCell>
        <mxCell id="Bm57KJPm13JoBIqNMTeG-42" value="Cache" style="rounded=1;whiteSpace=wrap;html=1;" vertex="1" parent="1">
          <mxGeometry x="123.33" y="275" width="40" height="40" as="geometry" />
        </mxCell>
        <mxCell id="Bm57KJPm13JoBIqNMTeG-45" style="rounded=0;orthogonalLoop=1;jettySize=auto;html=1;entryX=0.002;entryY=0.896;entryDx=0;entryDy=0;entryPerimeter=0;" edge="1" parent="1" source="Bm57KJPm13JoBIqNMTeG-44" target="Bm57KJPm13JoBIqNMTeG-10">
          <mxGeometry relative="1" as="geometry" />
        </mxCell>
        <mxCell id="Bm57KJPm13JoBIqNMTeG-44" value="" style="sketch=0;aspect=fixed;pointerEvents=1;shadow=0;dashed=0;html=1;strokeColor=none;labelPosition=center;verticalLabelPosition=bottom;verticalAlign=top;align=center;fillColor=#000000;shape=mxgraph.azure.queue_generic" vertex="1" parent="1">
          <mxGeometry y="289.5" width="83.33" height="25" as="geometry" />
        </mxCell>
        <mxCell id="Bm57KJPm13JoBIqNMTeG-46" style="rounded=0;orthogonalLoop=1;jettySize=auto;html=1;entryX=0.94;entryY=0.203;entryDx=0;entryDy=0;entryPerimeter=0;" edge="1" parent="1" source="Bm57KJPm13JoBIqNMTeG-10" target="Bm57KJPm13JoBIqNMTeG-44">
          <mxGeometry relative="1" as="geometry" />
        </mxCell>
        <mxCell id="Bm57KJPm13JoBIqNMTeG-47" value="User management&lt;br&gt;Friendship management&lt;br&gt;Auth, etc" style="rounded=0;whiteSpace=wrap;html=1;dashed=1;fillColor=#fff2cc;strokeColor=#d6b656;" vertex="1" parent="1">
          <mxGeometry x="287.66999999999996" y="135" width="86.67" height="80" as="geometry" />
        </mxCell>
        <mxCell id="Bm57KJPm13JoBIqNMTeG-48" value="Location cache" style="rounded=0;whiteSpace=wrap;html=1;dashed=1;fillColor=#fff2cc;strokeColor=#d6b656;" vertex="1" parent="1">
          <mxGeometry x="118.33" y="318" width="50" height="30" as="geometry" />
        </mxCell>
        <mxCell id="Bm57KJPm13JoBIqNMTeG-49" value="Redis pub/sub?" style="rounded=0;whiteSpace=wrap;html=1;dashed=1;fillColor=#fff2cc;strokeColor=#d6b656;" vertex="1" parent="1">
          <mxGeometry x="13.329999999999998" y="317" width="50" height="30" as="geometry" />
        </mxCell>
        <mxCell id="Bm57KJPm13JoBIqNMTeG-51" style="rounded=0;orthogonalLoop=1;jettySize=auto;html=1;fillColor=#fff2cc;strokeColor=#d6b656;startArrow=none;startFill=0;endArrow=none;endFill=0;dashed=1;exitX=0.133;exitY=-0.028;exitDx=0;exitDy=0;exitPerimeter=0;" edge="1" parent="1" source="Bm57KJPm13JoBIqNMTeG-50" target="Bm57KJPm13JoBIqNMTeG-49">
          <mxGeometry relative="1" as="geometry" />
        </mxCell>
        <mxCell id="Bm57KJPm13JoBIqNMTeG-50" value="Redis Pub/Sub is a very lightweight message bus. Channels in Redis pub/sub are very cheap to create. A modern Redis server with GBs of memory could hold millions of channels." style="rounded=0;whiteSpace=wrap;html=1;dashed=1;fillColor=#fff2cc;strokeColor=#d6b656;align=left;" vertex="1" parent="1">
          <mxGeometry y="354" width="287.67" height="62" as="geometry" />
        </mxCell>
        <mxCell id="Bm57KJPm13JoBIqNMTeG-52" value="User 1" style="rounded=1;whiteSpace=wrap;html=1;" vertex="1" parent="1">
          <mxGeometry x="530" y="35" width="70" height="20" as="geometry" />
        </mxCell>
        <mxCell id="Bm57KJPm13JoBIqNMTeG-53" value="2" style="text;html=1;strokeColor=#d6b656;fillColor=#fff2cc;align=center;verticalAlign=middle;whiteSpace=wrap;rounded=1;glass=0;shadow=1;arcSize=19;" vertex="1" parent="1">
          <mxGeometry x="414" y="30" width="20" height="20" as="geometry" />
        </mxCell>
        <mxCell id="Bm57KJPm13JoBIqNMTeG-62" style="edgeStyle=orthogonalEdgeStyle;rounded=0;orthogonalLoop=1;jettySize=auto;html=1;entryX=0.5;entryY=0;entryDx=0;entryDy=0;" edge="1" parent="1" source="Bm57KJPm13JoBIqNMTeG-54" target="Bm57KJPm13JoBIqNMTeG-60">
          <mxGeometry relative="1" as="geometry" />
        </mxCell>
        <mxCell id="Bm57KJPm13JoBIqNMTeG-54" value="User 5" style="rounded=1;whiteSpace=wrap;html=1;" vertex="1" parent="1">
          <mxGeometry x="701" y="35" width="70" height="20" as="geometry" />
        </mxCell>
        <mxCell id="Bm57KJPm13JoBIqNMTeG-56" value="WebSocket&lt;br&gt;Servers" style="text;html=1;strokeColor=none;fillColor=none;align=right;verticalAlign=middle;whiteSpace=wrap;rounded=0;" vertex="1" parent="1">
          <mxGeometry x="388" y="95" width="76" height="30" as="geometry" />
        </mxCell>
        <mxCell id="Bm57KJPm13JoBIqNMTeG-59" value="User 1&#39;s WS&lt;br&gt;connection" style="rounded=0;whiteSpace=wrap;html=1;" vertex="1" parent="1">
          <mxGeometry x="521" y="90" width="80" height="35" as="geometry" />
        </mxCell>
        <mxCell id="Bm57KJPm13JoBIqNMTeG-60" value="User 5&#39;s WS&lt;br&gt;connection" style="rounded=0;whiteSpace=wrap;html=1;" vertex="1" parent="1">
          <mxGeometry x="696" y="90" width="80" height="35" as="geometry" />
        </mxCell>
        <mxCell id="Bm57KJPm13JoBIqNMTeG-61" value="user 1&#39;s location" style="edgeStyle=orthogonalEdgeStyle;rounded=0;orthogonalLoop=1;jettySize=auto;html=1;entryX=0.561;entryY=0.049;entryDx=0;entryDy=0;entryPerimeter=0;" edge="1" parent="1" source="Bm57KJPm13JoBIqNMTeG-52" target="Bm57KJPm13JoBIqNMTeG-59">
          <mxGeometry x="0.1131" y="44" relative="1" as="geometry">
            <mxPoint y="-5" as="offset" />
          </mxGeometry>
        </mxCell>
        <mxCell id="Bm57KJPm13JoBIqNMTeG-63" value="" style="rounded=0;whiteSpace=wrap;html=1;dashed=1;" vertex="1" parent="1">
          <mxGeometry x="460.33" y="160" width="350" height="50" as="geometry" />
        </mxCell>
        <mxCell id="Bm57KJPm13JoBIqNMTeG-64" value="Redis&lt;br&gt;Pub/Sub" style="text;html=1;strokeColor=none;fillColor=none;align=right;verticalAlign=middle;whiteSpace=wrap;rounded=0;" vertex="1" parent="1">
          <mxGeometry x="382.33" y="170" width="76" height="30" as="geometry" />
        </mxCell>
        <mxCell id="Bm57KJPm13JoBIqNMTeG-76" style="rounded=0;orthogonalLoop=1;jettySize=auto;html=1;entryX=0.5;entryY=0;entryDx=0;entryDy=0;" edge="1" parent="1" source="Bm57KJPm13JoBIqNMTeG-65" target="Bm57KJPm13JoBIqNMTeG-72">
          <mxGeometry relative="1" as="geometry" />
        </mxCell>
        <mxCell id="Bm57KJPm13JoBIqNMTeG-78" style="rounded=0;orthogonalLoop=1;jettySize=auto;html=1;" edge="1" parent="1" source="Bm57KJPm13JoBIqNMTeG-65" target="Bm57KJPm13JoBIqNMTeG-73">
          <mxGeometry relative="1" as="geometry" />
        </mxCell>
        <mxCell id="Bm57KJPm13JoBIqNMTeG-65" value="User 1&#39;s channel" style="rounded=0;whiteSpace=wrap;html=1;" vertex="1" parent="1">
          <mxGeometry x="515.33" y="165" width="80" height="35" as="geometry" />
        </mxCell>
        <mxCell id="Bm57KJPm13JoBIqNMTeG-80" style="rounded=0;orthogonalLoop=1;jettySize=auto;html=1;" edge="1" parent="1" source="Bm57KJPm13JoBIqNMTeG-66" target="Bm57KJPm13JoBIqNMTeG-75">
          <mxGeometry relative="1" as="geometry" />
        </mxCell>
        <mxCell id="Bm57KJPm13JoBIqNMTeG-66" value="User 5&#39;s&lt;br&gt;channel" style="rounded=0;whiteSpace=wrap;html=1;" vertex="1" parent="1">
          <mxGeometry x="690.33" y="165" width="80" height="35" as="geometry" />
        </mxCell>
        <mxCell id="Bm57KJPm13JoBIqNMTeG-67" value="Publish" style="edgeStyle=orthogonalEdgeStyle;rounded=0;orthogonalLoop=1;jettySize=auto;html=1;entryX=0.582;entryY=0.061;entryDx=0;entryDy=0;entryPerimeter=0;" edge="1" parent="1" source="Bm57KJPm13JoBIqNMTeG-59" target="Bm57KJPm13JoBIqNMTeG-65">
          <mxGeometry x="0.203" y="18" relative="1" as="geometry">
            <mxPoint as="offset" />
          </mxGeometry>
        </mxCell>
        <mxCell id="Bm57KJPm13JoBIqNMTeG-69" value="Publish" style="edgeStyle=orthogonalEdgeStyle;rounded=0;orthogonalLoop=1;jettySize=auto;html=1;entryX=0.58;entryY=0.045;entryDx=0;entryDy=0;entryPerimeter=0;" edge="1" parent="1" source="Bm57KJPm13JoBIqNMTeG-60" target="Bm57KJPm13JoBIqNMTeG-66">
          <mxGeometry x="0.2162" y="23" relative="1" as="geometry">
            <Array as="points">
              <mxPoint x="736" y="140" />
              <mxPoint x="737" y="140" />
            </Array>
            <mxPoint as="offset" />
          </mxGeometry>
        </mxCell>
        <mxCell id="Bm57KJPm13JoBIqNMTeG-71" value="WebSocket&lt;br&gt;Servers" style="text;html=1;strokeColor=none;fillColor=none;align=right;verticalAlign=middle;whiteSpace=wrap;rounded=0;" vertex="1" parent="1">
          <mxGeometry x="382.33" y="250" width="76" height="30" as="geometry" />
        </mxCell>
        <mxCell id="Bm57KJPm13JoBIqNMTeG-85" style="edgeStyle=orthogonalEdgeStyle;rounded=0;orthogonalLoop=1;jettySize=auto;html=1;entryX=0.5;entryY=0;entryDx=0;entryDy=0;" edge="1" parent="1" source="Bm57KJPm13JoBIqNMTeG-72" target="Bm57KJPm13JoBIqNMTeG-81">
          <mxGeometry relative="1" as="geometry" />
        </mxCell>
        <mxCell id="Bm57KJPm13JoBIqNMTeG-72" value="User 2&#39;s WS&lt;br&gt;connection" style="rounded=0;whiteSpace=wrap;html=1;" vertex="1" parent="1">
          <mxGeometry x="466.00000000000006" y="245" width="80" height="35" as="geometry" />
        </mxCell>
        <mxCell id="Bm57KJPm13JoBIqNMTeG-87" style="edgeStyle=orthogonalEdgeStyle;rounded=0;orthogonalLoop=1;jettySize=auto;html=1;entryX=0.5;entryY=0;entryDx=0;entryDy=0;" edge="1" parent="1" source="Bm57KJPm13JoBIqNMTeG-73" target="Bm57KJPm13JoBIqNMTeG-83">
          <mxGeometry relative="1" as="geometry" />
        </mxCell>
        <mxCell id="Bm57KJPm13JoBIqNMTeG-73" value="User 4&#39;s WS&lt;br&gt;connection" style="rounded=0;whiteSpace=wrap;html=1;" vertex="1" parent="1">
          <mxGeometry x="638" y="245" width="80" height="35" as="geometry" />
        </mxCell>
        <mxCell id="Bm57KJPm13JoBIqNMTeG-86" style="edgeStyle=orthogonalEdgeStyle;rounded=0;orthogonalLoop=1;jettySize=auto;html=1;entryX=0.5;entryY=0;entryDx=0;entryDy=0;" edge="1" parent="1" source="Bm57KJPm13JoBIqNMTeG-74" target="Bm57KJPm13JoBIqNMTeG-82">
          <mxGeometry relative="1" as="geometry" />
        </mxCell>
        <mxCell id="Bm57KJPm13JoBIqNMTeG-74" value="User 3&#39;s WS&lt;br&gt;connection" style="rounded=0;whiteSpace=wrap;html=1;" vertex="1" parent="1">
          <mxGeometry x="552" y="245" width="80" height="35" as="geometry" />
        </mxCell>
        <mxCell id="Bm57KJPm13JoBIqNMTeG-88" style="edgeStyle=orthogonalEdgeStyle;rounded=0;orthogonalLoop=1;jettySize=auto;html=1;entryX=0.5;entryY=0;entryDx=0;entryDy=0;" edge="1" parent="1" source="Bm57KJPm13JoBIqNMTeG-75" target="Bm57KJPm13JoBIqNMTeG-84">
          <mxGeometry relative="1" as="geometry" />
        </mxCell>
        <mxCell id="Bm57KJPm13JoBIqNMTeG-75" value="User 6&#39;s WS&lt;br&gt;connection" style="rounded=0;whiteSpace=wrap;html=1;" vertex="1" parent="1">
          <mxGeometry x="725" y="245" width="80" height="35" as="geometry" />
        </mxCell>
        <mxCell id="Bm57KJPm13JoBIqNMTeG-77" style="rounded=0;orthogonalLoop=1;jettySize=auto;html=1;entryX=0.409;entryY=0.078;entryDx=0;entryDy=0;entryPerimeter=0;" edge="1" parent="1" source="Bm57KJPm13JoBIqNMTeG-65" target="Bm57KJPm13JoBIqNMTeG-74">
          <mxGeometry relative="1" as="geometry" />
        </mxCell>
        <mxCell id="Bm57KJPm13JoBIqNMTeG-79" style="rounded=0;orthogonalLoop=1;jettySize=auto;html=1;entryX=0.548;entryY=0.061;entryDx=0;entryDy=0;entryPerimeter=0;" edge="1" parent="1" source="Bm57KJPm13JoBIqNMTeG-66" target="Bm57KJPm13JoBIqNMTeG-73">
          <mxGeometry relative="1" as="geometry" />
        </mxCell>
        <mxCell id="Bm57KJPm13JoBIqNMTeG-81" value="User 2" style="rounded=1;whiteSpace=wrap;html=1;" vertex="1" parent="1">
          <mxGeometry x="471" y="310" width="70" height="20" as="geometry" />
        </mxCell>
        <mxCell id="Bm57KJPm13JoBIqNMTeG-82" value="User 3" style="rounded=1;whiteSpace=wrap;html=1;" vertex="1" parent="1">
          <mxGeometry x="557" y="310" width="70" height="20" as="geometry" />
        </mxCell>
        <mxCell id="Bm57KJPm13JoBIqNMTeG-83" value="User 4" style="rounded=1;whiteSpace=wrap;html=1;" vertex="1" parent="1">
          <mxGeometry x="643" y="310" width="70" height="20" as="geometry" />
        </mxCell>
        <mxCell id="Bm57KJPm13JoBIqNMTeG-84" value="User 6" style="rounded=1;whiteSpace=wrap;html=1;" vertex="1" parent="1">
          <mxGeometry x="730" y="310" width="70" height="20" as="geometry" />
        </mxCell>
        <mxCell id="Bm57KJPm13JoBIqNMTeG-89" value="NEARBY FRIENDS" style="text;html=1;strokeColor=none;fillColor=none;align=center;verticalAlign=middle;whiteSpace=wrap;rounded=0;fontStyle=1;fontSize=16;" vertex="1" parent="1">
          <mxGeometry x="334" width="160" height="30" as="geometry" />
        </mxCell>
      </root>
    </mxGraphModel>
  </diagram>
</mxfile>
